<?xml version="1.0" standalone="no"?>
<!DOCTYPE svg PUBLIC "-//W3C//DTD SVG 20010904//EN"
 "http://www.w3.org/TR/2001/REC-SVG-20010904/DTD/svg10.dtd">
<svg version="1.0" xmlns="http://www.w3.org/2000/svg"
 width="813.000000pt" height="813.000000pt" viewBox="0 0 813.000000 813.000000"
 preserveAspectRatio="xMidYMid meet">
<metadata>
Created by potrace 1.14, written by Peter Selinger 2001-2017
</metadata>
<g transform="translate(0.000000,813.000000) scale(0.100000,-0.100000)"
fill="#000000" stroke="none">
<path d="M5559 6778 c-117 -168 -350 -459 -484 -606 -243 -265 -454 -433 -640
-508 -57 -23 -86 -28 -155 -28 -74 -1 -92 3 -136 26 -106 56 -211 207 -274
395 -32 98 -65 241 -75 333 -3 30 -8 69 -10 85 -2 17 -4 57 -4 89 -1 79 -7 68
-15 -24 -33 -394 -159 -743 -316 -869 -142 -114 -330 -126 -558 -34 -226 90
-453 261 -745 562 -134 138 -137 138 -52 6 90 -141 113 -178 169 -280 251
-460 189 -765 -172 -848 -79 -18 -263 -19 -367 -2 -106 17 -183 38 -344 91
-74 24 -136 44 -139 44 -3 0 37 -30 89 -67 225 -160 319 -258 373 -393 20 -48
31 -200 15 -200 -5 0 -9 3 -9 8 0 4 -9 18 -19 30 l-18 24 -114 -82 c-63 -46
-160 -116 -216 -157 l-103 -74 35 -47 c19 -26 38 -51 43 -57 4 -5 18 -24 30
-42 l22 -31 -37 -29 c-110 -84 -284 -185 -515 -300 -116 -58 -157 -83 -110
-69 18 6 40 9 132 22 30 4 57 8 60 9 3 1 39 5 80 9 41 4 86 9 100 11 124 17
411 27 489 16 l44 -6 138 -189 c154 -213 145 -184 87 -306 -36 -75 -129 -221
-211 -332 -31 -42 -57 -79 -57 -83 0 -3 17 6 37 19 21 14 58 36 83 49 25 13
77 41 115 62 78 41 219 100 265 110 24 5 35 1 55 -19 14 -14 29 -26 32 -26 3
0 46 18 94 40 92 43 111 44 170 15 48 -24 78 -54 97 -95 19 -42 26 -249 11
-325 -5 -27 -12 -63 -15 -80 -22 -130 -106 -393 -173 -539 -17 -38 -30 -70
-29 -72 2 -1 26 34 53 78 175 284 415 559 600 690 264 186 438 150 575 -119
65 -130 125 -350 146 -543 3 -30 7 -66 10 -80 2 -14 7 -72 10 -130 3 -58 7
-107 9 -108 2 -2 6 18 10 45 23 184 102 465 170 608 112 233 235 257 412 78
186 -188 385 -586 571 -1148 38 -115 73 -225 77 -242 14 -69 22 -38 9 40 -7
45 -15 107 -18 137 -4 30 -9 73 -12 95 -6 49 -10 98 -21 235 -10 133 -10 602
0 695 12 116 30 215 39 215 10 0 244 -146 271 -168 9 -9 19 -13 22 -10 3 2
-25 80 -61 172 -36 92 -64 169 -62 170 6 4 113 91 118 96 29 30 38 31 99 10
67 -22 177 -84 267 -151 33 -23 61 -45 64 -48 3 -4 21 -19 40 -35 53 -43 123
-108 244 -225 l108 -106 -37 70 c-152 280 -247 513 -257 625 -3 34 -2 35 33
36 129 4 232 64 285 166 28 54 23 134 -14 212 -18 38 -32 69 -32 71 0 1 21 6
48 10 26 5 54 10 62 12 37 10 315 8 400 -3 52 -6 119 -15 149 -19 45 -6 342
-66 391 -79 80 -21 310 -80 330 -83 14 -3 -67 42 -180 99 -292 148 -392 208
-555 331 -107 82 -277 248 -270 265 2 7 96 151 208 320 111 169 206 313 211
320 5 8 -2 15 -18 22 -28 10 -32 20 -15 37 9 9 2 16 -26 27 -21 9 -39 16 -41
16 -2 0 -79 30 -171 66 -93 36 -192 75 -220 86 -29 11 -53 25 -53 31 0 29 125
192 225 293 93 94 294 265 345 294 8 5 12 11 8 15 -3 3 -14 2 -25 -4 -78 -46
-547 -197 -667 -215 -21 -4 -42 -8 -46 -11 -27 -17 -315 -25 -403 -12 -144 22
-263 108 -321 231 -109 228 -64 646 123 1164 22 62 45 121 51 132 17 31 4 23
-21 -12z"/>
<path d="M2910 6714 c-1 -24 -11 -158 -15 -199 -1 -16 -3 -53 -4 -81 l-1 -51
-107 -27 c-60 -15 -115 -29 -123 -31 -48 -10 -101 -27 -97 -31 3 -3 72 -32
154 -64 l148 -59 0 -73 c-1 -40 -4 -120 -8 -176 l-7 -104 37 44 c21 24 71 85
112 135 l74 90 86 -34 c47 -19 95 -38 106 -43 61 -29 126 -48 122 -36 -3 7
-42 70 -86 140 -45 70 -82 131 -84 135 -2 7 154 200 201 250 7 7 12 15 10 17
-2 1 -77 -16 -166 -38 -89 -22 -164 -39 -166 -37 -2 2 -45 69 -95 148 -50 79
-91 136 -91 125z"/>
<path d="M6095 6171 c-81 -71 -92 -78 -115 -69 -14 5 -32 15 -40 22 -16 13
-139 86 -145 86 -2 0 18 -50 45 -110 l48 -111 -40 -37 c-78 -71 -143 -134
-133 -129 6 3 46 8 90 11 44 4 94 9 111 12 30 5 31 5 81 -107 42 -92 53 -108
57 -88 3 13 16 67 28 119 21 88 25 95 48 96 14 1 57 5 95 9 39 5 80 8 92 9 32
0 22 9 -82 67 -110 63 -107 53 -71 202 13 53 23 97 22 97 -1 0 -42 -36 -91
-79z"/>
</g>
</svg>
