<?xml version="1.0" standalone="no"?>
<!DOCTYPE svg PUBLIC "-//W3C//DTD SVG 20010904//EN"
 "http://www.w3.org/TR/2001/REC-SVG-20010904/DTD/svg10.dtd">
<svg version="1.0" xmlns="http://www.w3.org/2000/svg"
 width="600.000000pt" height="600.000000pt" viewBox="0 0 600.000000 600.000000"
 preserveAspectRatio="xMidYMid meet">
<metadata>
Created by potrace 1.14, written by Peter Selinger 2001-2017
</metadata>
<g transform="translate(0.000000,600.000000) scale(0.100000,-0.100000)"
fill="#fff" stroke="none">
<path d="M2165 5985 c-27 -7 -68 -14 -91 -14 -24 -1 -64 -13 -100 -32 -71 -37
-196 -79 -234 -79 -15 0 -34 -7 -41 -16 -27 -33 -89 -63 -152 -75 -52 -10 -67
-17 -76 -36 -7 -15 -19 -23 -35 -23 -13 0 -26 -6 -29 -14 -3 -8 -19 -17 -36
-21 -24 -5 -31 -12 -31 -29 0 -25 -28 -56 -51 -56 -35 0 -121 -55 -172 -109
-34 -37 -66 -61 -85 -66 -19 -4 -53 -29 -88 -65 -31 -32 -70 -65 -87 -73 -30
-15 -57 -68 -57 -114 0 -13 -6 -23 -12 -23 -25 0 -208 -208 -208 -235 0 -6
-16 -27 -36 -46 -20 -18 -52 -67 -72 -107 -20 -41 -51 -90 -68 -110 -30 -36
-39 -60 -51 -132 -3 -19 -18 -50 -34 -70 -55 -68 -159 -354 -159 -437 0 -27
-9 -82 -21 -123 -20 -76 -52 -229 -65 -310 -4 -25 -9 -39 -11 -32 -3 6 -9 12
-14 12 -15 0 -11 -499 5 -572 8 -35 17 -126 20 -203 4 -77 13 -169 21 -205 8
-36 17 -75 20 -87 5 -19 1 -23 -21 -23 -35 0 -29 -34 8 -38 24 -3 46 -37 33
-51 -3 -2 -5 1 -5 7 0 7 -9 12 -20 12 -17 0 -20 -7 -20 -40 0 -38 2 -40 30
-40 20 0 30 -5 30 -15 0 -8 -9 -15 -21 -15 -17 0 -20 -5 -17 -38 3 -34 6 -37
35 -40 30 -3 33 -7 48 -60 48 -177 78 -248 213 -517 82 -163 131 -248 149
-262 16 -11 44 -51 63 -89 19 -38 58 -92 87 -121 29 -29 53 -57 53 -63 0 -5
14 -10 30 -10 25 0 30 -4 30 -23 0 -15 15 -38 40 -61 22 -20 43 -48 46 -61 4
-18 13 -25 29 -25 13 0 32 -11 43 -25 11 -14 35 -28 53 -31 21 -4 52 -24 80
-51 40 -38 52 -44 82 -42 39 4 74 -18 57 -35 -39 -39 30 -25 84 17 37 29 40
29 65 14 29 -17 41 -40 17 -31 -11 4 -16 1 -16 -10 0 -14 -3 -14 -20 -4 -27
17 -50 -4 -34 -30 12 -19 54 -29 54 -13 0 8 6 7 20 -1 16 -10 23 -9 43 10 33
31 52 28 142 -23 81 -47 139 -63 164 -46 27 18 -46 100 -129 142 -25 13 -46
27 -48 32 -2 4 -8 7 -14 7 -6 0 -52 26 -102 58 -50 32 -99 61 -109 65 -11 4
-17 17 -17 37 0 23 -6 33 -23 39 -37 14 -85 59 -109 102 -12 21 -29 39 -37 39
-15 0 -27 12 -98 99 -47 59 4 21 87 -64 41 -42 107 -97 145 -122 39 -25 84
-60 101 -77 17 -18 49 -37 70 -44 22 -6 53 -25 69 -42 16 -16 39 -30 51 -30
12 0 36 -13 53 -29 38 -36 204 -114 361 -171 63 -22 142 -52 175 -66 33 -14
96 -32 140 -40 197 -37 247 -45 350 -59 61 -8 156 -18 213 -22 57 -3 98 -9 91
-13 -26 -16 5 -30 67 -30 56 0 68 3 90 25 19 19 42 28 92 35 104 15 154 34
194 74 28 28 44 36 73 36 34 0 37 2 33 25 -4 20 -1 26 18 31 13 3 28 12 35 20
6 8 44 24 83 36 68 20 102 34 234 94 31 15 88 35 126 45 38 10 83 29 100 42
46 35 107 64 151 73 60 10 133 67 135 104 0 8 22 25 48 38 26 12 74 47 107 77
33 30 73 61 90 70 24 11 41 34 72 97 43 87 96 149 144 170 16 7 29 20 29 30 0
25 11 48 24 48 27 1 71 55 106 130 23 49 35 60 68 60 25 0 32 14 56 101 16 57
49 110 61 97 16 -16 17 -86 0 -118 -12 -22 -14 -35 -6 -43 15 -15 38 8 63 60
11 24 24 43 29 43 5 0 -1 -18 -12 -39 -12 -24 -19 -53 -17 -73 3 -31 5 -33 46
-36 35 -3 42 -7 42 -24 0 -16 4 -19 25 -14 l24 6 -14 -41 c-8 -23 -15 -59 -15
-81 l0 -40 43 7 c55 9 71 19 101 58 23 30 86 173 86 196 0 18 48 121 69 147
11 14 23 49 27 82 3 31 24 109 46 172 57 164 75 225 83 269 5 33 11 40 37 45
l31 6 -6 98 c-15 233 -18 387 -8 372 5 -8 13 -32 16 -52 8 -44 17 -48 34 -15
16 30 10 571 -7 637 -7 25 -22 99 -34 165 -12 66 -28 126 -35 133 -11 12 -18
49 -14 75 1 9 -54 127 -159 338 -79 158 -130 241 -207 337 -24 30 -43 61 -43
71 0 25 -375 390 -568 553 -24 20 -51 50 -60 66 -28 50 -89 110 -134 133 -24
12 -101 63 -173 114 -146 104 -241 164 -324 203 -53 26 -63 27 -206 26 -101 0
-176 -6 -229 -17 -43 -9 -112 -17 -153 -17 -75 0 -76 -1 -142 -49 -36 -27 -81
-56 -98 -65 -19 -10 -33 -24 -33 -35 0 -25 -28 -78 -45 -85 -8 -3 -27 -28 -42
-57 -15 -28 -34 -61 -41 -73 -10 -15 -12 -53 -9 -143 l5 -122 58 -78 c33 -43
64 -85 71 -93 133 -166 180 -204 292 -230 44 -11 106 -29 138 -40 65 -23 104
-25 165 -9 38 10 47 9 83 -11 113 -65 133 -71 205 -69 51 1 75 -2 88 -13 37
-34 100 -61 152 -67 l55 -6 -1 -43 c-1 -41 0 -42 34 -42 65 0 114 -45 176
-164 14 -28 24 -51 22 -53 -2 -2 -16 3 -32 12 -28 14 -29 14 -32 -10 -2 -13 2
-34 8 -47 6 -13 -15 5 -47 40 -55 59 -62 63 -123 74 -39 7 -81 23 -105 39 -52
35 -116 47 -135 24 -10 -12 -11 -21 -4 -33 13 -21 131 -118 163 -135 13 -6 49
-41 80 -76 32 -36 46 -59 34 -53 -46 25 -104 4 -89 -33 7 -20 32 -19 41 3 5
12 12 1 26 -43 47 -154 52 -164 81 -176 38 -16 111 -96 142 -157 38 -75 61
-177 47 -208 -17 -37 -14 -66 15 -151 25 -74 27 -91 31 -318 5 -233 6 -241 29
-277 25 -39 33 -111 14 -123 -5 -3 -10 -33 -10 -66 0 -44 -7 -73 -25 -109 -14
-28 -25 -67 -25 -89 0 -35 -5 -45 -45 -78 -38 -32 -45 -43 -45 -74 0 -64 -16
-94 -51 -95 -29 -1 -30 0 -25 31 4 18 18 55 32 82 20 35 28 67 31 121 3 59 10
82 33 119 24 37 30 58 30 101 0 50 -2 53 -22 50 -13 -2 -32 -17 -43 -35 -11
-18 -25 -32 -32 -33 -7 0 -17 -19 -23 -42 -29 -112 -75 -233 -145 -383 -26
-55 -55 -121 -66 -146 -15 -35 -32 -52 -69 -75 -29 -17 -50 -36 -50 -46 0 -31
-33 -73 -95 -123 -33 -26 -93 -80 -133 -119 -39 -39 -84 -77 -100 -85 -15 -8
-55 -34 -88 -57 -34 -24 -70 -44 -80 -44 -11 0 -32 -9 -49 -21 -44 -30 -194
-104 -240 -119 -22 -7 -74 -30 -115 -50 -189 -94 -395 -138 -671 -142 -128 -3
-149 -1 -166 14 -12 11 -36 18 -61 18 -87 0 -197 21 -233 45 -20 13 -67 31
-105 40 -134 33 -280 117 -390 225 -53 51 -67 60 -98 60 -30 0 -39 6 -60 38
-13 20 -54 66 -89 101 -36 35 -73 78 -82 97 -8 18 -36 63 -60 100 -25 37 -45
76 -45 86 0 11 -10 28 -23 38 -13 10 -29 37 -37 59 -7 23 -19 46 -27 52 -7 6
-13 19 -13 28 0 16 -14 58 -63 181 -14 36 -33 92 -42 125 -9 33 -21 70 -26 83
-5 13 -9 46 -9 73 0 36 -6 58 -21 77 l-20 26 20 8 c26 9 27 44 3 71 -17 19
-17 19 18 0 35 -20 40 -31 60 -133 17 -88 22 -103 31 -88 13 20 11 100 -5 181
-34 168 -40 231 -40 402 0 182 13 320 41 430 9 33 18 93 22 133 4 47 11 78 21
85 19 15 35 50 51 112 16 62 48 128 110 225 26 42 60 101 74 133 15 32 41 72
59 90 50 49 136 172 136 194 0 11 3 23 8 27 4 4 7 11 7 14 0 9 110 112 119
112 9 0 78 50 89 65 4 5 6 30 5 54 l-3 44 100 49 c85 41 102 54 112 81 6 18
12 24 12 15 1 -22 10 -23 39 -2 12 8 22 26 22 40 0 28 8 31 25 7 15 -20 45
-11 52 16 3 11 14 22 25 24 30 8 16 31 -21 37 -32 5 -32 5 55 65 48 33 98 70
113 82 l26 22 -41 1 c-70 0 -124 26 -94 45 6 3 10 22 10 41 0 37 -14 43 -53
23 -18 -9 -20 -9 -9 2 6 7 12 24 12 37 0 24 -1 24 -82 19 -46 -2 -94 -8 -108
-12 -22 -7 -21 -4 8 18 19 14 63 42 98 63 36 21 83 57 105 81 22 24 44 43 49
43 5 0 24 9 42 20 18 11 43 20 55 20 16 0 25 8 29 26 11 44 -28 56 -93 29 -23
-10 -49 -13 -71 -9 -31 6 -34 5 -28 -13 9 -28 -12 -34 -93 -27 -62 6 -71 4
-109 -21 -27 -18 -48 -25 -59 -20 -14 5 -3 14 47 39 63 32 83 57 48 64 -10 2
-18 -1 -18 -7 0 -6 -8 -11 -18 -11 -38 0 -288 -114 -356 -162 -21 -16 -47 -28
-56 -28 -9 0 -37 -14 -63 -31 -30 -20 -53 -28 -66 -24 -14 4 -21 0 -26 -14 -8
-27 -55 -71 -75 -71 -9 0 -22 11 -29 24 -12 22 -10 27 34 67 26 24 68 57 93
74 26 17 67 45 92 61 25 17 64 36 87 43 23 6 56 24 73 40 37 33 130 86 223
125 37 15 67 34 67 42 0 7 14 29 31 49 25 28 34 33 49 25 27 -14 50 -12 44 4
-4 10 2 12 20 9 15 -3 33 1 43 8 9 8 34 21 57 29 29 11 42 22 44 38 3 21 1 22
-85 21 -48 -1 -110 -7 -138 -14z m-15 -870 c0 -2 -9 -9 -20 -15 -12 -6 -20 -7
-20 -1 0 5 8 12 18 14 9 3 18 5 20 6 1 0 2 -1 2 -4z m25 -115 c-3 -5 -14 -10
-23 -10 -15 0 -15 2 -2 10 20 13 33 13 25 0z m-505 -490 c-20 -13 -40 -13 -40
0 0 6 12 10 28 10 21 0 24 -2 12 -10z m3112 -443 c22 -42 -2 -23 -47 35 l-48
63 42 -40 c23 -22 47 -48 53 -58z m68 37 c0 -8 -5 -12 -10 -9 -6 4 -8 11 -5
16 9 14 15 11 15 -7z m-3530 -55 c0 -11 -4 -18 -10 -14 -5 3 -7 12 -3 20 7 21
13 19 13 -6z m-91 -191 c-22 -49 -34 -90 -35 -124 -1 -27 -6 -59 -11 -70 -6
-10 -13 -41 -16 -69 -3 -27 -16 -113 -28 -190 -30 -187 -33 -493 -7 -540 20
-33 24 -85 8 -85 -20 0 -32 55 -37 168 -5 95 -10 119 -28 146 -23 34 -22 41
12 114 9 19 16 49 15 66 -10 153 -5 203 32 341 60 223 69 249 93 274 13 13 23
31 23 39 0 8 3 12 7 9 3 -4 -9 -39 -28 -79z m3833 -1930 c-8 -8 -9 -4 -5 13 4
13 8 18 11 10 2 -7 -1 -18 -6 -23z m-532 -60 c0 -7 -12 -26 -26 -43 l-25 -30
23 42 c25 46 28 50 28 31z m-64 -113 c-7 -24 -17 -35 -30 -35 -20 0 -18 3 23
53 19 23 20 22 7 -18z m-78 -92 c-23 -53 -41 -74 -80 -94 -21 -11 -38 -17 -38
-14 0 6 121 135 126 135 2 0 -2 -12 -8 -27z m-142 -151 c-9 -17 -38 -56 -66
-88 -52 -59 -57 -84 -22 -110 10 -7 15 -33 16 -89 l1 -78 -42 -34 c-23 -19
-75 -51 -116 -72 -41 -21 -87 -47 -103 -58 -16 -11 -55 -33 -87 -48 -32 -15
-63 -36 -70 -46 -6 -10 -19 -19 -27 -19 -8 0 -36 -11 -62 -25 -77 -41 -127
-30 -94 20 11 17 26 25 46 25 16 0 32 5 35 11 4 5 44 34 88 64 110 72 119 81
115 102 -5 27 -34 27 -70 -1 -18 -13 -65 -33 -104 -44 -40 -11 -81 -25 -92
-31 -29 -16 -35 2 -12 32 11 14 20 30 20 36 0 5 -28 11 -62 13 l-63 3 50 29
c28 17 84 47 125 69 41 21 89 50 107 63 22 17 45 24 75 24 32 0 54 7 79 26 19
14 72 48 119 76 88 53 170 123 170 145 0 7 9 13 20 13 11 0 23 7 27 15 3 9 7
14 10 11 2 -2 -3 -18 -11 -34z m-2429 -576 c15 -13 25 -27 21 -31 -3 -4 -21 7
-39 24 -38 36 -23 42 18 7z m-582 -117 c11 -17 0 -20 -21 -4 -17 13 -17 14 -2
15 9 0 20 -5 23 -11z m75 -41 c0 -16 -3 -19 -11 -11 -6 6 -8 16 -5 22 11 17
16 13 16 -11z m1182 -69 c20 -5 40 -14 44 -20 9 -15 -48 -2 -100 22 -35 17
-37 19 -11 14 17 -4 47 -10 67 -16z"/>
<path d="M4020 1314 c0 -10 7 -14 22 -12 32 5 35 28 4 28 -17 0 -26 -5 -26
-16z"/>
<path d="M3923 1245 c-3 -9 -3 -18 0 -22 10 -10 37 6 37 22 0 20 -29 20 -37 0z"/>
<path d="M3850 1215 c0 -20 5 -25 25 -25 20 0 25 5 25 25 0 20 -5 25 -25 25
-20 0 -25 -5 -25 -25z"/>
<path d="M3744 1189 c-10 -12 -29 -25 -41 -30 -30 -11 -34 -74 -5 -65 47 14
79 20 95 17 16 -2 18 4 15 46 -2 40 -7 49 -24 51 -11 2 -29 -7 -40 -19z"/>
<path d="M4060 1134 c-14 -35 -13 -44 6 -44 29 0 54 21 54 45 0 36 -47 35 -60
-1z"/>
<path d="M2662 5563 c2 -10 13 -19 26 -21 24 -4 29 7 10 26 -18 18 -40 15 -36
-5z"/>
<path d="M2580 5551 c0 -5 -16 -15 -35 -22 -33 -12 -55 -43 -40 -57 3 -3 15
-1 25 6 11 7 36 12 55 12 25 0 35 4 35 15 0 9 7 18 15 21 30 12 16 34 -20 34
-19 0 -35 -4 -35 -9z"/>
<path d="M2488 5198 c-21 -11 -38 -26 -38 -34 0 -18 29 -18 36 0 3 8 13 12 24
9 19 -5 70 23 70 38 0 15 -53 7 -92 -13z"/>
<path d="M4307 4433 c-14 -13 -6 -24 15 -21 27 4 36 28 11 28 -11 0 -23 -3
-26 -7z"/>
<path d="M4480 4424 c0 -29 21 -54 45 -54 38 0 31 36 -12 59 -29 15 -33 14
-33 -5z"/>
<path d="M4374 4179 c-4 -7 -3 -14 3 -16 6 -2 27 -20 46 -38 41 -40 57 -44 57
-15 0 20 -44 70 -61 70 -4 0 -14 3 -22 6 -8 3 -18 0 -23 -7z"/>
<path d="M5923 2893 c-7 -2 -13 -11 -13 -20 0 -20 34 -12 38 10 3 17 -3 20
-25 10z"/>
<path d="M1224 2445 c-6 -15 8 -68 31 -120 7 -16 17 -43 21 -60 4 -16 10 -34
14 -40 4 -5 10 -22 14 -37 4 -19 13 -28 26 -28 28 0 26 38 -5 102 -14 28 -25
62 -25 75 0 13 -4 23 -9 23 -5 0 -12 15 -16 33 -12 57 -16 67 -31 67 -8 0 -17
-7 -20 -15z"/>
<path d="M1340 2117 c0 -41 43 -107 69 -107 14 0 14 33 0 47 -6 6 -14 26 -18
45 -5 24 -13 34 -29 36 -18 3 -22 -2 -22 -21z"/>
<path d="M5166 1750 c-25 -46 -29 -80 -9 -80 14 0 53 78 53 104 0 39 -14 31
-44 -24z"/>
<path d="M5120 1651 c0 -12 6 -21 16 -21 9 0 14 7 12 17 -5 25 -28 28 -28 4z"/>
<path d="M5043 1624 c-28 -31 -30 -64 -5 -64 17 0 52 50 52 76 0 22 -23 16
-47 -12z"/>
<path d="M5117 1510 c-9 -11 -17 -23 -17 -27 0 -3 -14 -28 -31 -55 -17 -27
-29 -51 -26 -54 18 -18 127 106 127 144 0 19 -34 14 -53 -8z"/>
<path d="M4791 1315 c-19 -19 -38 -35 -42 -35 -5 0 -9 -9 -9 -20 0 -13 -7 -20
-20 -20 -24 0 -26 -13 -4 -34 24 -25 42 -19 68 22 13 20 34 47 46 60 21 23 24
52 5 59 -5 1 -25 -13 -44 -32z"/>
<path d="M4947 1282 c-15 -15 -27 -33 -27 -40 0 -7 -6 -12 -14 -12 -7 0 -19
-7 -26 -15 -7 -8 -21 -15 -31 -15 -11 0 -19 -6 -19 -13 0 -11 -82 -93 -210
-210 -14 -12 -65 -64 -113 -115 -48 -51 -91 -92 -94 -92 -4 0 -32 -17 -63 -39
-30 -21 -66 -42 -80 -46 -14 -4 -33 -16 -43 -26 -10 -11 -40 -30 -67 -44 -42
-21 -70 -49 -70 -69 0 -18 65 -2 107 26 27 18 73 46 103 62 30 16 62 35 71 42
27 24 113 64 136 64 13 0 51 29 101 79 43 43 98 92 121 109 24 17 55 51 71 74
15 24 46 54 68 68 23 14 42 30 42 36 0 6 23 37 51 69 43 49 50 62 47 94 -4 46
-25 51 -61 13z"/>
<path d="M4950 1114 c0 -9 -9 -18 -20 -21 -11 -3 -24 -20 -31 -42 -15 -48 -66
-150 -84 -168 -24 -23 -18 -33 12 -22 50 19 138 69 169 97 57 50 95 132 61
132 -8 0 -22 9 -32 20 -22 25 -75 27 -75 4z"/>
<path d="M4476 1011 c-9 -16 -35 -40 -59 -54 -58 -34 -76 -55 -56 -68 18 -11
48 -2 74 22 11 10 41 37 68 60 55 48 60 69 17 69 -22 0 -33 -7 -44 -29z"/>
<path d="M3459 495 c-3 -2 -32 -11 -64 -20 -176 -48 -261 -67 -365 -81 -63 -9
-122 -22 -130 -29 -8 -7 -41 -15 -73 -19 -72 -8 -147 -42 -147 -66 0 -35 25
-43 120 -38 49 2 87 2 84 -1 -3 -3 -65 -8 -137 -12 -125 -5 -177 -17 -177 -39
0 -6 7 -10 15 -10 10 0 15 -10 15 -34 0 -41 10 -46 113 -53 42 -3 77 -9 77
-13 0 -25 122 -40 161 -20 36 20 23 40 -28 41 -47 2 -47 2 14 10 59 7 103 25
197 78 28 16 58 23 107 24 52 2 74 7 98 25 21 16 44 22 78 22 27 0 76 7 108
16 65 16 176 73 183 92 6 18 -43 15 -91 -7 -70 -32 -142 -49 -362 -87 -115
-20 -222 -39 -237 -41 -16 -3 -45 -2 -65 2 l-38 8 35 9 c19 5 67 12 105 16
l70 7 1 38 c1 59 50 76 109 37 38 -25 75 -26 75 -2 0 10 -5 23 -12 30 -9 9 -7
12 9 12 12 0 25 5 28 10 3 6 19 10 34 10 16 0 54 11 85 25 41 18 56 30 56 45
0 14 -7 20 -23 20 -13 0 -26 -2 -28 -5z"/>
<path d="M3767 413 c-14 -13 -6 -24 15 -21 27 4 36 28 11 28 -11 0 -23 -3 -26
-7z"/>
<path d="M3720 379 c0 -24 23 -21 28 4 2 10 -3 17 -12 17 -10 0 -16 -9 -16
-21z"/>
<path d="M2730 16 c0 -13 12 -16 56 -16 73 0 70 24 -4 28 -42 2 -52 0 -52 -12z"/>
</g>
</svg>
